<?xml version="1.0" standalone="no"?>
<!DOCTYPE svg PUBLIC "-//W3C//DTD SVG 20010904//EN"
 "http://www.w3.org/TR/2001/REC-SVG-20010904/DTD/svg10.dtd">
<svg version="1.0" xmlns="http://www.w3.org/2000/svg"
 width="500.000000pt" height="500.000000pt" viewBox="0 0 500.000000 500.000000"
 preserveAspectRatio="xMidYMid meet">

<g transform="translate(0.000000,500.000000) scale(0.100000,-0.100000)"
fill="#000000" stroke="none">
<path d="M2168 3859 l-327 -702 -700 -326 c-386 -179 -701 -328 -701 -331 0
-3 315 -152 701 -331 l700 -326 327 -702 c180 -385 329 -701 332 -701 3 0 152
316 332 701 l326 701 701 327 c385 179 701 328 701 331 0 3 -316 152 -701 331
l-701 327 -326 701 c-180 385 -329 701 -332 701 -3 0 -152 -316 -332 -701z
m122 -939 l0 -260 210 0 210 0 0 260 0 260 150 0 150 0 0 -655 0 -655 -150 0
-150 0 0 260 0 260 -210 0 -210 0 0 -260 0 -260 -150 0 -150 0 0 655 0 655
150 0 150 0 0 -260z"/>
</g>
</svg>
