<?xml version="1.0" standalone="no"?>
<!DOCTYPE svg PUBLIC "-//W3C//DTD SVG 20010904//EN"
 "http://www.w3.org/TR/2001/REC-SVG-20010904/DTD/svg10.dtd">
<svg version="1.0" xmlns="http://www.w3.org/2000/svg"
 width="500.000000pt" height="500.000000pt" viewBox="0 0 500.000000 500.000000"
 preserveAspectRatio="xMidYMid meet">

<g transform="translate(0.000000,500.000000) scale(0.100000,-0.100000)"
fill="#000000" stroke="none">
<path d="M0 2500 l0 -2500 2500 0 2500 0 0 2500 0 2500 -2500 0 -2500 0 0
-2500z m2820 1125 l0 -445 253 -2 252 -3 0 -315 0 -315 -254 -3 -253 -2 5
-438 c5 -463 9 -499 56 -575 11 -18 36 -42 54 -52 47 -25 144 -17 221 18 32
15 61 25 63 23 10 -10 203 -649 198 -656 -10 -16 -181 -83 -270 -105 -271 -69
-544 -52 -745 47 -205 101 -341 318 -385 613 -12 78 -15 210 -15 612 l0 513
-172 2 -173 3 0 315 0 315 173 3 172 2 0 445 0 445 410 0 410 0 0 -445z"/>
</g>
</svg>
